<svg width="18" height="18" viewBox="0 0 18 18" fill="none" xmlns="http://www.w3.org/2000/svg">
<path fill-rule="evenodd" clip-rule="evenodd" d="M3.99935 1.70768C3.07888 1.70768 2.33268 2.45387 2.33268 3.37435L2.33268 14.6243C2.33268 15.5448 3.07888 16.291 3.99935 16.291H13.9993C14.9198 16.291 15.666 15.5448 15.666 14.6243V3.37436C15.666 2.45389 14.9198 1.7077 13.9993 1.70769L3.99935 1.70768ZM0.666016 3.37435C0.666016 1.5334 2.1584 0.0410118 3.99935 0.0410156L13.9994 0.0410275C15.8403 0.0410297 17.3327 1.53341 17.3327 3.37436V14.6243C17.3327 16.4653 15.8403 17.9577 13.9993 17.9577H3.99935C2.1584 17.9577 0.666016 16.4653 0.666016 14.6243L0.666016 3.37435ZM12.7493 3.166C13.2096 3.166 13.5827 3.53909 13.5827 3.99933L13.5827 5.24933C13.5827 7.78063 11.5307 9.83266 8.99935 9.83266C6.46804 9.83266 4.41601 7.78063 4.41601 5.24933V3.99933C4.41601 3.53909 4.78911 3.166 5.24935 3.166C5.70958 3.166 6.08268 3.53909 6.08268 3.99933V5.24933C6.08268 6.86016 7.38852 8.166 8.99935 8.166C10.6102 8.166 11.916 6.86016 11.916 5.24933L11.916 3.99933C11.916 3.53909 12.2891 3.166 12.7493 3.166Z" fill="#424551"/>
</svg>
