<svg width="16" height="16" viewBox="0 0 16 16" fill="none" xmlns="http://www.w3.org/2000/svg">
<path d="M8.0013 15.3327C12.0447 15.3327 15.3346 12.043 15.3346 7.99935C15.3346 7.30141 15.2372 6.61361 15.0443 5.9549C14.9493 5.63099 14.611 5.44495 14.2862 5.53998C13.962 5.63472 13.7766 5.97415 13.8713 6.29805C14.0311 6.84531 14.1124 7.41793 14.1124 7.99935C14.1124 11.369 11.3709 14.1105 8.0013 14.1105C4.63169 14.1105 1.89019 11.369 1.89019 7.99935C1.89019 4.62973 4.63169 1.88824 8.0013 1.88824C9.22591 1.88824 10.4041 2.24631 11.4085 2.92352C11.6881 3.11225 12.0683 3.0381 12.2567 2.7585C12.4453 2.47861 12.3717 2.09875 12.0918 1.91017C10.8848 1.0963 9.47045 0.666016 8.0013 0.666016C3.95791 0.666016 0.667969 3.95566 0.667969 7.99935C0.667969 12.043 3.95791 15.3327 8.0013 15.3327Z" fill="#17696A"/>
<path d="M14.8632 1.52787L8.00118 8.38953L5.80587 6.19454C5.54545 5.93429 5.12358 5.93429 4.86316 6.19454C4.60291 6.45496 4.60291 6.87683 4.86316 7.13725L7.52983 9.80391C7.6602 9.93428 7.83044 9.99923 8.00118 9.99923C8.17192 9.99923 8.34216 9.93428 8.47253 9.80391L15.8059 2.47058C16.0661 2.21016 16.0661 1.78829 15.8059 1.52787C15.5454 1.26762 15.1236 1.26762 14.8632 1.52787Z" fill="#17696A"/>
</svg>
