<svg width="16" height="15" viewBox="0 0 16 15" fill="none" xmlns="http://www.w3.org/2000/svg">
<path d="M8.66602 3.83268C8.66602 3.46449 8.36754 3.16602 7.99935 3.16602C7.63116 3.16602 7.33268 3.46449 7.33268 3.83268V7.49935C7.33268 7.67616 7.40292 7.84573 7.52794 7.97075L9.52794 9.97075C9.78829 10.2311 10.2104 10.2311 10.4708 9.97075C10.7311 9.7104 10.7311 9.28829 10.4708 9.02794L8.66602 7.22321V3.83268Z" fill="#787A80"/>
<path fill-rule="evenodd" clip-rule="evenodd" d="M7.99935 0.166016C3.94926 0.166016 0.666016 3.44926 0.666016 7.49935C0.666016 11.5494 3.94926 14.8327 7.99935 14.8327C12.0494 14.8327 15.3327 11.5494 15.3327 7.49935C15.3327 3.44926 12.0494 0.166016 7.99935 0.166016ZM1.99935 7.49935C1.99935 4.18564 4.68564 1.49935 7.99935 1.49935C11.3131 1.49935 13.9993 4.18564 13.9993 7.49935C13.9993 10.8131 11.3131 13.4993 7.99935 13.4993C4.68564 13.4993 1.99935 10.8131 1.99935 7.49935Z" fill="#787A80"/>
</svg>
