<svg width="12" height="11" viewBox="0 0 12 11" fill="none" xmlns="http://www.w3.org/2000/svg">
<path fill-rule="evenodd" clip-rule="evenodd" d="M0.861278 0.362254C1.12163 0.101905 1.54374 0.101905 1.80409 0.362254L5.99934 4.55751L10.1946 0.362254C10.455 0.101905 10.8771 0.101905 11.1374 0.362255C11.3978 0.622604 11.3978 1.04471 11.1374 1.30506L6.94215 5.50032L11.1374 9.69559C11.3978 9.95594 11.3978 10.378 11.1374 10.6384C10.8771 10.8987 10.455 10.8987 10.1946 10.6384L5.99935 6.44313L1.80409 10.6384C1.54374 10.8987 1.12163 10.8987 0.861278 10.6384C0.600928 10.378 0.600928 9.95594 0.861277 9.69559L5.05654 5.50032L0.861278 1.30506C0.600928 1.04471 0.600928 0.622604 0.861278 0.362254Z" fill="#9A9CA5"/>
</svg>
