<svg width="16" height="15" viewBox="0 0 16 15" fill="none" xmlns="http://www.w3.org/2000/svg">
<path fill-rule="evenodd" clip-rule="evenodd" d="M6.5663 13.3327C6.65931 13.3327 6.74553 13.2832 6.79257 13.2026L6.79667 13.1956L9.85417 8.23885L9.85417 1.66602L4.13029 1.66601C4.00747 1.66601 3.90125 1.75127 3.87464 1.87102L3.87232 1.88142L2.17235 8.52115C2.1412 8.68209 2.26454 8.83268 2.42951 8.83268L5.02083 8.83268C5.45495 8.83268 5.89423 8.97772 6.21404 9.28986C6.55025 9.61801 6.70612 10.088 6.60609 10.5943L6.12686 13.02C6.09486 13.1819 6.2188 13.3327 6.38375 13.3327L6.5663 13.3327ZM11.1875 1.66602L11.1875 7.76125L13.5498 7.76125C13.6936 7.76125 13.8106 7.64524 13.8117 7.50128C13.8117 7.50128 13.8117 7.50128 13.8117 7.50128L13.8542 1.92987C13.8553 1.78458 13.7377 1.66602 13.5923 1.66602L11.1875 1.66602ZM10.8929 9.09459L7.93945 13.8827C7.65257 14.3678 7.13068 14.666 6.5663 14.666L6.38375 14.666C5.37861 14.666 4.62399 13.7476 4.81881 12.7616L5.29804 10.3359C5.30657 10.2927 5.30104 10.2731 5.29971 10.2688C5.29823 10.264 5.29497 10.256 5.28274 10.244C5.25485 10.2168 5.17182 10.166 5.02083 10.166L2.42951 10.166C1.40886 10.166 0.650896 9.22077 0.872281 8.22461L0.87459 8.21421L2.57573 1.56996C2.74227 0.846228 3.38674 0.332681 4.13029 0.332681L13.5923 0.332682C14.478 0.332682 15.1942 1.0543 15.1875 1.94003C15.1875 1.94001 15.1875 1.94004 15.1875 1.94003L15.145 7.51146C15.1383 8.38765 14.4261 9.09459 13.5498 9.09459L10.8929 9.09459Z" fill="#FF4242"/>
</svg>
