<svg width="8" height="16" viewBox="0 0 8 16" fill="none" xmlns="http://www.w3.org/2000/svg">
<path d="M7.70791 0.669067L5.8564 0.666016C3.77629 0.666016 2.43204 2.08274 2.43204 4.2755V5.93972H0.570429C0.409564 5.93972 0.279297 6.07368 0.279297 6.23893V8.65019C0.279297 8.81543 0.409712 8.94925 0.570429 8.94925H2.43204V15.0336C2.43204 15.1989 2.5623 15.3327 2.72317 15.3327H5.15204C5.3129 15.3327 5.44317 15.1987 5.44317 15.0336V8.94925H7.61983C7.78069 8.94925 7.91096 8.81543 7.91096 8.65019L7.91185 6.23893C7.91185 6.15959 7.8811 6.0836 7.82659 6.02745C7.77208 5.9713 7.69781 5.93972 7.62057 5.93972H5.44317V4.52894C5.44317 3.85087 5.60047 3.50664 6.46035 3.50664L7.70761 3.50618C7.86833 3.50618 7.99859 3.37221 7.99859 3.20712V0.968129C7.99859 0.803187 7.86848 0.669372 7.70791 0.669067Z" fill="white"/>
</svg>
