<svg width="15" height="16" viewBox="0 0 15 16" fill="none" xmlns="http://www.w3.org/2000/svg">
<path fill-rule="evenodd" clip-rule="evenodd" d="M3.83268 6.33301C4.20087 6.33301 4.49935 6.63148 4.49935 6.99967L4.49935 14.4997C4.49935 14.8679 4.20087 15.1663 3.83268 15.1663C3.46449 15.1663 3.16602 14.8679 3.16602 14.4997L3.16602 6.99967C3.16602 6.63148 3.46449 6.33301 3.83268 6.33301Z" fill="white"/>
<path fill-rule="evenodd" clip-rule="evenodd" d="M3.83268 0.833008C4.20087 0.833008 4.49935 1.13148 4.49935 1.49967V3.49967C4.49935 3.86786 4.20087 4.16634 3.83268 4.16634C3.46449 4.16634 3.16602 3.86786 3.16602 3.49967V1.49967C3.16602 1.13148 3.46449 0.833008 3.83268 0.833008Z" fill="white"/>
<path fill-rule="evenodd" clip-rule="evenodd" d="M0.166016 4.83301C0.166016 3.72844 1.06145 2.83301 2.16602 2.83301H5.49935C6.60392 2.83301 7.49935 3.72844 7.49935 4.83301V5.66634C7.49935 6.77091 6.60392 7.66634 5.49935 7.66634H2.16602C1.06145 7.66634 0.166016 6.77091 0.166016 5.66634V4.83301ZM2.16602 4.16634C1.79783 4.16634 1.49935 4.46482 1.49935 4.83301V5.66634C1.49935 6.03453 1.79783 6.33301 2.16602 6.33301H5.49935C5.86754 6.33301 6.16602 6.03453 6.16602 5.66634V4.83301C6.16602 4.46482 5.86754 4.16634 5.49935 4.16634H2.16602Z" fill="white"/>
<path fill-rule="evenodd" clip-rule="evenodd" d="M11.166 11.833C11.5342 11.833 11.8327 12.1315 11.8327 12.4997V14.4997C11.8327 14.8679 11.5342 15.1663 11.166 15.1663C10.7978 15.1663 10.4993 14.8679 10.4993 14.4997V12.4997C10.4993 12.1315 10.7978 11.833 11.166 11.833Z" fill="white"/>
<path fill-rule="evenodd" clip-rule="evenodd" d="M11.166 0.833008C11.5342 0.833008 11.8327 1.13148 11.8327 1.49967V8.99967C11.8327 9.36786 11.5342 9.66634 11.166 9.66634C10.7978 9.66634 10.4993 9.36786 10.4993 8.99967V1.49967C10.4993 1.13148 10.7978 0.833008 11.166 0.833008Z" fill="white"/>
<path fill-rule="evenodd" clip-rule="evenodd" d="M7.49935 10.333C7.49935 9.22844 8.39478 8.33301 9.49935 8.33301H12.8327C13.9373 8.33301 14.8327 9.22844 14.8327 10.333V11.1663C14.8327 12.2709 13.9373 13.1663 12.8327 13.1663H9.49935C8.39478 13.1663 7.49935 12.2709 7.49935 11.1663V10.333ZM9.49935 9.66634C9.13116 9.66634 8.83268 9.96482 8.83268 10.333V11.1663C8.83268 11.5345 9.13116 11.833 9.49935 11.833H12.8327C13.2009 11.833 13.4993 11.5345 13.4993 11.1663V10.333C13.4993 9.96482 13.2009 9.66634 12.8327 9.66634H9.49935Z" fill="white"/>
</svg>
