<svg width="16" height="12" viewBox="0 0 16 12" fill="none" xmlns="http://www.w3.org/2000/svg">
<path d="M15.2224 8.73925C15.2224 8.73925 15.2224 8.73925 15.2224 8.73925L9.46156 5.13893C9.36112 5.07615 9.24504 5.04285 9.12661 5.04285H8.63205V4.77421C9.61015 4.49806 10.3291 3.59751 10.3291 2.53223C10.3291 1.24796 9.28426 0.203125 8 0.203125C6.7157 0.203125 5.6709 1.24796 5.6709 2.53223C5.6709 2.8813 5.95388 3.16428 6.30295 3.16428C6.65203 3.16428 6.93501 2.8813 6.93501 2.53223C6.93501 1.94499 7.41273 1.46723 8 1.46723C8.58723 1.46723 9.06496 1.94499 9.06496 2.53223C9.06496 3.11946 8.5872 3.59722 8 3.59722C7.65093 3.59722 7.36795 3.8802 7.36795 4.22927V5.04285H6.87339C6.75496 5.04285 6.63888 5.07615 6.53844 5.13893L0.777607 8.73925C0.290709 9.04361 0 9.56807 0 10.1423C0 11.0546 0.742212 11.7968 1.6545 11.7968H14.3455C15.2578 11.7968 16 11.0546 16 10.1423C16 9.56807 15.7093 9.04361 15.2224 8.73925V8.73925ZM14.3455 10.5327H1.6545C1.43924 10.5327 1.26411 10.3576 1.26411 10.1423C1.26411 10.0068 1.3327 9.88302 1.44758 9.81121L7.05463 6.30696H8.94534L14.5524 9.81121C14.6673 9.88302 14.7359 10.0068 14.7359 10.1423C14.7359 10.3576 14.5607 10.5327 14.3455 10.5327V10.5327Z" fill="#424551"/>
</svg>
