<svg width="14" height="15" viewBox="0 0 14 15" fill="none" xmlns="http://www.w3.org/2000/svg">
<path fill-rule="evenodd" clip-rule="evenodd" d="M7.52347 2.28077C7.18117 2.18809 6.82039 2.18809 6.47809 2.28077C6.12173 2.37726 5.77613 2.63005 4.7906 3.39657L3.05726 4.74472C2.42297 5.23806 2.21001 5.41103 2.05948 5.61456C1.91481 5.81015 1.80705 6.03049 1.74148 6.26476C1.67324 6.50853 1.66745 6.78283 1.66745 7.58639V11.9996C1.66745 12.5133 1.67468 12.6224 1.69615 12.6932C1.76079 12.9062 1.92752 13.073 2.14059 13.1376C2.21137 13.1591 2.32042 13.1663 2.83411 13.1663H3.25078C3.33608 13.1663 3.3546 13.1661 3.36683 13.1655C3.7093 13.1487 3.98315 12.8748 3.99998 12.5323C4.00058 12.5201 4.00078 12.5016 4.00078 12.4163V10.4996C4.00078 8.84278 5.34393 7.49963 7.00078 7.49963C8.65763 7.49963 10.0008 8.84278 10.0008 10.4996V12.4163C10.0008 12.5016 10.001 12.5201 10.0016 12.5323C10.0184 12.8748 10.2923 13.1487 10.6347 13.1655C10.647 13.1661 10.6655 13.1663 10.7508 13.1663H11.1674C11.6811 13.1663 11.7902 13.1591 11.861 13.1376C12.074 13.073 12.2408 12.9062 12.3054 12.6932C12.3269 12.6224 12.3341 12.5133 12.3341 11.9996V7.58639C12.3341 6.78283 12.3283 6.50853 12.2601 6.26476C12.1945 6.03049 12.0867 5.81015 11.9421 5.61456C11.7916 5.41103 11.5786 5.23806 10.9443 4.74472L9.21097 3.39657C8.22543 2.63005 7.87984 2.37726 7.52347 2.28077ZM6.12962 0.99378C6.70012 0.839313 7.30144 0.839313 7.87194 0.99378C8.5208 1.16946 9.09012 1.61272 9.91611 2.25581C9.95339 2.28484 9.9912 2.31427 10.0296 2.3441L11.7629 3.69225C11.7868 3.71089 11.8105 3.72926 11.8338 3.74739C12.37 4.16417 12.741 4.45248 13.0141 4.8217C13.2552 5.14768 13.4348 5.51491 13.5441 5.90536C13.6679 6.34759 13.6677 6.81741 13.6675 7.49656C13.6675 7.5261 13.6674 7.55604 13.6674 7.58639V11.9996C13.6674 12.0279 13.6675 12.0558 13.6675 12.0835C13.668 12.4644 13.6684 12.7933 13.5813 13.0802C13.3874 13.7194 12.8872 14.2196 12.248 14.4135C11.9611 14.5005 11.6322 14.5002 11.2513 14.4997C11.2236 14.4997 11.1957 14.4996 11.1674 14.4996L10.7368 14.4996C10.6734 14.4996 10.6189 14.4997 10.5693 14.4972C9.5419 14.4468 8.72033 13.6252 8.66986 12.5978C8.66742 12.5482 8.66743 12.4937 8.66745 12.4303L8.66745 10.4996C8.66745 9.57916 7.92126 8.83297 7.00078 8.83297C6.08031 8.83297 5.33411 9.57916 5.33411 10.4996L5.33412 12.4303C5.33413 12.4937 5.33414 12.5482 5.33171 12.5978C5.28123 13.6252 4.45966 14.4468 3.43225 14.4972C3.38269 14.4997 3.32818 14.4996 3.26475 14.4996L2.83411 14.4996C2.80588 14.4996 2.77792 14.4997 2.75023 14.4997C2.36938 14.5002 2.04044 14.5005 1.75355 14.4135C1.11434 14.2196 0.614134 13.7194 0.420234 13.0802C0.333205 12.7933 0.333596 12.4644 0.334049 12.0835C0.334081 12.0558 0.334115 12.0279 0.334115 11.9996V7.58639C0.334115 7.55604 0.334105 7.5261 0.334095 7.49655C0.333866 6.81741 0.333708 6.34759 0.457494 5.90536C0.566784 5.51491 0.746391 5.14768 0.987493 4.8217C1.26057 4.45248 1.63153 4.16416 2.16775 3.74739C2.19108 3.72926 2.21472 3.71089 2.23867 3.69225L3.97201 2.3441C4.01037 2.31427 4.04817 2.28483 4.08546 2.25581C4.91144 1.61272 5.48077 1.16946 6.12962 0.99378Z" fill="#424551"/>
</svg>
