<svg width="14" height="14" viewBox="0 0 14 14" fill="none" xmlns="http://www.w3.org/2000/svg">
<path d="M13.6543 4.25402C13.623 3.54557 13.5085 3.05852 13.3444 2.63648C13.1751 2.18849 12.9146 1.78741 12.5733 1.45399C12.2399 1.11539 11.8362 0.852274 11.3934 0.685616C10.9689 0.521501 10.4844 0.406936 9.77596 0.3757C9.06221 0.341819 8.83563 0.333984 7.02538 0.333984C5.21513 0.333984 4.98855 0.341819 4.27745 0.373055C3.569 0.40429 3.08195 0.518957 2.66001 0.68297C2.21193 0.852274 1.81085 1.11274 1.47743 1.45399C1.13882 1.78741 0.875813 2.19114 0.709053 2.63393C0.544938 3.05852 0.430373 3.54292 0.399137 4.25137C0.365256 4.96512 0.357422 5.1917 0.357422 7.00195C0.357422 8.8122 0.365256 9.03879 0.396492 9.74988C0.427728 10.4583 0.542394 10.9454 0.706509 11.3674C0.875813 11.8154 1.13882 12.2165 1.47743 12.5499C1.81085 12.8885 2.21457 13.1516 2.65737 13.3183C3.08195 13.4824 3.56636 13.597 4.27491 13.6282C4.9859 13.6595 5.21259 13.6673 7.02284 13.6673C8.83308 13.6673 9.05967 13.6595 9.77077 13.6282C10.4792 13.597 10.9663 13.4824 11.3882 13.3183C12.2843 12.9718 12.9927 12.2634 13.3392 11.3674C13.5032 10.9428 13.6178 10.4583 13.6491 9.74988C13.6803 9.03879 13.6882 8.8122 13.6882 7.00195C13.6882 5.1917 13.6855 4.96512 13.6543 4.25402ZM12.4536 9.69779C12.4249 10.349 12.3155 10.7006 12.2243 10.935C12.0003 11.5159 11.5393 11.9769 10.9584 12.2009C10.724 12.2921 10.3698 12.4015 9.72122 12.4301C9.01795 12.4614 8.80704 12.4691 7.02803 12.4691C5.24902 12.4691 5.03545 12.4614 4.33473 12.4301C3.68357 12.4015 3.33194 12.2921 3.09752 12.2009C2.80846 12.0941 2.54535 11.9248 2.33178 11.7034C2.11039 11.4872 1.94108 11.2267 1.83425 10.9377C1.74309 10.7032 1.63371 10.349 1.60512 9.70044C1.57378 8.99717 1.56605 8.78616 1.56605 7.00714C1.56605 5.22813 1.57378 5.01457 1.60512 4.31395C1.63371 3.66278 1.74309 3.31115 1.83425 3.07673C1.94108 2.78757 2.11039 2.52456 2.33443 2.31089C2.55053 2.08949 2.811 1.92019 3.10016 1.81346C3.33458 1.7223 3.68886 1.61292 4.33738 1.58423C5.04064 1.55299 5.25166 1.54516 7.03057 1.54516C8.81223 1.54516 9.02314 1.55299 9.72386 1.58423C10.375 1.61292 10.7267 1.7223 10.9611 1.81346C11.2501 1.92019 11.5133 2.08949 11.7268 2.31089C11.9482 2.5271 12.1175 2.78757 12.2243 3.07673C12.3155 3.31115 12.4249 3.66532 12.4536 4.31395C12.4848 5.01721 12.4926 5.22813 12.4926 7.00714C12.4926 8.78616 12.4848 8.99453 12.4536 9.69779Z" fill="white"/>
<path d="M7.02538 3.5768C5.13445 3.5768 3.60023 5.11092 3.60023 7.00196C3.60023 8.893 5.13445 10.4271 7.02538 10.4271C8.91641 10.4271 10.4505 8.893 10.4505 7.00196C10.4505 5.11092 8.91641 3.5768 7.02538 3.5768ZM7.02538 9.22377C5.79864 9.22377 4.80357 8.2288 4.80357 7.00196C4.80357 5.77511 5.79864 4.78015 7.02538 4.78015C8.25222 4.78015 9.24719 5.77511 9.24719 7.00196C9.24719 8.2288 8.25222 9.22377 7.02538 9.22377Z" fill="white"/>
<path d="M11.3857 3.44138C11.3857 3.88296 11.0276 4.241 10.586 4.241C10.1444 4.241 9.78635 3.88296 9.78635 3.44138C9.78635 2.99971 10.1444 2.64177 10.586 2.64177C11.0276 2.64177 11.3857 2.99971 11.3857 3.44138Z" fill="white"/>
</svg>
