<svg width="20" height="16" viewBox="0 0 20 16" fill="none" xmlns="http://www.w3.org/2000/svg">
<path d="M19.9965 13.3616L18.4739 1.94612C18.364 1.12175 17.6536 0.5 16.8219 0.5H7.08324C6.85293 0.5 6.66656 0.686365 6.66656 0.916675C6.66656 1.14698 6.85293 1.33335 7.08324 1.33335H16.8219C17.2378 1.33335 17.5934 1.64421 17.6479 2.05639L18.2184 6.33329H15.0445L17.3362 4.58077C17.5193 4.4412 17.5535 4.17957 17.4143 3.99687C17.2736 3.81336 17.0123 3.78 16.83 3.91914L13.6731 6.33325H7.08324C6.84371 6.33325 6.60707 6.34587 6.3736 6.36923L3.16969 3.91914C2.98657 3.77996 2.72618 3.81336 2.5854 3.99687C2.44626 4.17957 2.48044 4.4412 2.66352 4.58077L5.2733 6.57645C2.24326 7.37941 0 10.1373 0 13.4165C0 13.6468 0.186365 13.8332 0.416675 13.8332H3.86558L2.66356 14.7524C2.48048 14.8919 2.4463 15.1536 2.58544 15.3363C2.66763 15.4437 2.79133 15.4999 2.91665 15.4999C3.00536 15.4999 3.09407 15.4718 3.16973 15.414L5.23693 13.8332H14.7629L16.8301 15.414C16.9058 15.4718 16.9945 15.4999 17.0832 15.4999C17.2085 15.4999 17.3322 15.4437 17.4144 15.3363C17.5535 15.1536 17.5194 14.8919 17.3362 14.7524L16.1342 13.8332H19.5831C19.7036 13.8332 19.8175 13.7815 19.8964 13.6912C19.9754 13.6005 20.012 13.4804 19.9965 13.3616ZM12.5834 7.16664L9.99988 9.14224L7.4164 7.1666H12.5834V7.16664ZM4.95529 12.9999H0.847178C1.04128 10.0611 3.27824 7.67808 6.14626 7.24402L9.31427 9.66657L4.95529 12.9999ZM6.32665 12.9999L9.99988 10.1909L13.6731 12.9999H6.32665ZM15.0445 12.9999L10.6855 9.66661L13.9548 7.16664H18.3299L19.107 12.9999H15.0445Z" fill="#787A80"/>
</svg>
