<svg width="16" height="17" viewBox="0 0 16 17" fill="none" xmlns="http://www.w3.org/2000/svg">
<path fill-rule="evenodd" clip-rule="evenodd" d="M9.45324 2.66732C9.36022 2.66732 9.274 2.71676 9.22696 2.79736L9.22286 2.80438L6.16536 7.76115V14.334H11.8892C12.0121 14.334 12.1183 14.2487 12.1449 14.129L12.1472 14.1186L13.8472 7.47883C13.8783 7.3179 13.755 7.16732 13.59 7.16732H10.9987C10.5646 7.16732 10.1253 7.02228 9.80549 6.71014C9.46928 6.38199 9.31341 5.91203 9.41344 5.40572L9.89267 2.98001C9.92467 2.81806 9.80073 2.66732 9.63578 2.66732H9.45324ZM4.83203 14.334V8.23875H2.46972C2.32593 8.23875 2.20893 8.35476 2.20782 8.49872C2.20782 8.49872 2.20782 8.49872 2.20782 8.49872L2.16537 14.0701C2.16426 14.2154 2.2818 14.334 2.42721 14.334H4.83203ZM5.12663 6.90541L8.08008 2.11731C8.36696 1.63222 8.88885 1.33398 9.45324 1.33398H9.63578C10.6409 1.33398 11.3955 2.25237 11.2007 3.23844L10.7215 5.66415C10.713 5.70732 10.7185 5.72693 10.7198 5.73124C10.7213 5.73604 10.7246 5.74402 10.7368 5.75596C10.7647 5.78317 10.8477 5.83398 10.9987 5.83398H13.59C14.6107 5.83398 15.3686 6.77923 15.1473 7.77539L15.1449 7.78579L13.4438 14.43C13.2773 15.1537 12.6328 15.6673 11.8892 15.6673H2.42721C1.54152 15.6673 0.825291 14.9457 0.832079 14.06C0.832079 14.06 0.832079 14.06 0.832079 14.06L0.874528 8.48854C0.881245 7.61235 1.59339 6.90541 2.46972 6.90541H5.12663Z" fill="#03CEA4"/>
</svg>
