<svg width="14" height="14" viewBox="0 0 14 14" fill="none" xmlns="http://www.w3.org/2000/svg">
<path d="M13.664 13.6673L13.6673 13.6668V8.77677C13.6673 6.38454 13.1523 4.54176 10.3557 4.54176C9.01121 4.54176 8.10898 5.27954 7.74065 5.97899H7.70176V4.7651H5.05009V13.6668H7.8112V9.25899C7.8112 8.09843 8.0312 6.97621 9.46843 6.97621C10.8845 6.97621 10.9057 8.30065 10.9057 9.33343V13.6673H13.664Z" fill="#787A80"/>
<path d="M0.553981 4.76565H3.31843V13.6673H0.553981V4.76565Z" fill="#787A80"/>
<path d="M1.9351 0.333984C1.05121 0.333984 0.333984 1.05121 0.333984 1.9351C0.333984 2.81898 1.05121 3.55121 1.9351 3.55121C2.81898 3.55121 3.53621 2.81898 3.53621 1.9351C3.53565 1.05121 2.81843 0.333984 1.9351 0.333984Z" fill="#787A80"/>
</svg>
