<svg width="30" height="30" viewBox="0 0 30 30" fill="none" xmlns="http://www.w3.org/2000/svg">
<path fill-rule="evenodd" clip-rule="evenodd" d="M20.4224 12.881C21.8189 13.9483 21.8189 16.0511 20.4224 17.1184L14.3158 21.7857C12.561 23.1269 10.0298 21.8756 10.0298 19.667V10.3325C10.0298 8.12385 12.561 6.87259 14.3158 8.21378L20.4224 12.881ZM18.8031 14.9997L12.6965 10.3325L12.6965 19.667L18.8031 14.9997Z" fill="white"/>
<path fill-rule="evenodd" clip-rule="evenodd" d="M14.9987 2.99967C8.37128 2.99967 2.9987 8.37226 2.9987 14.9997C2.9987 21.6271 8.37128 26.9997 14.9987 26.9997C21.6261 26.9997 26.9987 21.6271 26.9987 14.9997C26.9987 8.37226 21.6261 2.99967 14.9987 2.99967ZM0.332031 14.9997C0.332031 6.8995 6.89852 0.333008 14.9987 0.333008C23.0989 0.333008 29.6654 6.8995 29.6654 14.9997C29.6654 23.0998 23.0989 29.6663 14.9987 29.6663C6.89852 29.6663 0.332031 23.0998 0.332031 14.9997Z" fill="white"/>
</svg>
