<svg width="18" height="18" viewBox="0 0 18 18" fill="none" xmlns="http://www.w3.org/2000/svg">
<path d="M12.7507 16.291C13.2109 16.291 13.584 16.6641 13.584 17.1243C13.584 17.5846 13.2109 17.9577 12.7507 17.9577H4.20898C1.90779 17.9577 0.042314 16.0922 0.042314 13.791V4.20768C0.042314 1.90649 1.90779 0.0410156 4.20898 0.0410156H12.7507C13.2109 0.0410156 13.584 0.41411 13.584 0.874349C13.584 1.33459 13.2109 1.70768 12.7507 1.70768L4.20898 1.70768C2.82827 1.70768 1.70898 2.82697 1.70898 4.20768V13.791C1.70898 15.1717 2.82827 16.291 4.20898 16.291H12.7507Z" fill="#424551"/>
<path d="M3.79232 8.99935C3.79232 9.22036 3.88011 9.43232 4.03639 9.58861L7.78639 13.3386C8.11183 13.664 8.63947 13.664 8.96491 13.3386C9.29034 13.0132 9.29034 12.4855 8.96491 12.1601L6.63749 9.83268L17.1257 9.83268C17.5859 9.83268 17.959 9.45959 17.959 8.99935C17.959 8.53911 17.5859 8.16602 17.1257 8.16602L6.63749 8.16602L8.96491 5.83861C9.29034 5.51317 9.29034 4.98553 8.96491 4.66009C8.63947 4.33466 8.11183 4.33466 7.78639 4.66009L4.03639 8.41009C3.88011 8.56637 3.79232 8.77834 3.79232 8.99935Z" fill="#424551"/>
</svg>
