<svg width="14" height="12" viewBox="0 0 14 12" fill="none" xmlns="http://www.w3.org/2000/svg">
<path d="M14 1.84887C13.4847 2.0675 12.9318 2.21577 12.3509 2.28196C12.9441 1.94186 13.3981 1.4024 13.6133 0.761582C13.0569 1.07654 12.4428 1.30524 11.7884 1.42922C11.2644 0.893947 10.519 0.560547 9.69227 0.560547C8.1062 0.560547 6.82018 1.79192 6.82018 3.30978C6.82018 3.52505 6.84555 3.73531 6.89455 3.93637C4.50801 3.82159 2.39178 2.72676 0.975426 1.06313C0.727841 1.46858 0.586994 1.941 0.586994 2.4453C0.586994 3.39941 1.0944 4.24127 1.86427 4.7338C1.3936 4.71873 0.950926 4.59476 0.563386 4.38869V4.42303C0.563386 5.75492 1.55371 6.86651 2.86682 7.1195C2.62624 7.18149 2.37255 7.21583 2.11009 7.21583C1.92464 7.21583 1.74529 7.19824 1.56944 7.16473C1.93511 8.25789 2.99543 9.05283 4.25171 9.07463C3.26926 9.81178 2.03048 10.2499 0.684995 10.2499C0.453171 10.2499 0.224824 10.2365 0 10.2122C1.27114 10.9937 2.78024 11.4494 4.40218 11.4494C9.68532 11.4494 12.5732 7.2594 12.5732 3.62559L12.5635 3.26959C13.1278 2.88423 13.6159 2.40007 14 1.84887Z" fill="white"/>
</svg>
