<svg width="20" height="18" viewBox="0 0 20 18" fill="none" xmlns="http://www.w3.org/2000/svg">
<path d="M19.6652 3.5929C19.4373 3.54188 19.2196 3.70013 19.1749 3.94005L18.6359 6.80289C18.3756 6.68046 18.1776 6.47031 17.9468 6.21843C17.6343 5.8773 17.2573 5.47418 16.6465 5.31879C16.5956 4.3545 16.2064 3.45216 15.5111 2.76443L14.1219 1.39107C13.3382 0.617092 12.253 0.199202 11.1507 0.254944L6.16827 0.489318C5.97745 0.498264 5.8171 0.635802 5.77928 0.823028C5.67511 1.33775 5.78499 1.85783 6.08893 2.2879C6.39249 2.71677 6.86651 3.00571 7.39022 3.07978L8.43392 3.22708C8.61295 3.25231 8.75334 3.36786 8.80908 3.53673C8.83513 3.61567 8.87662 3.81872 8.69716 3.99618L6.08921 6.57464C5.96897 6.46925 5.85225 6.35226 5.72925 6.2184C5.33335 5.78707 4.84058 5.24996 3.8925 5.24996C2.94441 5.24996 2.45168 5.78707 2.05574 6.2184C1.82453 6.47046 1.6259 6.68124 1.3643 6.80363L0.825242 3.94001C0.780476 3.70052 0.562782 3.5427 0.334931 3.59286C0.109502 3.64083 -0.0369814 3.87387 0.00817468 4.1138L2.30715 16.3263C2.46219 17.1512 3.14945 17.7499 3.94125 17.7499H16.0587C16.8505 17.7499 17.5378 17.1512 17.6928 16.3263L19.9918 4.1138C20.0371 3.87391 19.8906 3.64087 19.6652 3.5929ZM9.28314 4.58864C9.63267 4.24317 9.75435 3.73981 9.60013 3.2747C9.44509 2.80591 9.04267 2.47142 8.55033 2.40185L7.50705 2.25455C7.20514 2.21181 6.9435 2.05271 6.76975 1.80689C6.66233 1.6547 6.59803 1.48299 6.58014 1.30435L11.1899 1.08748C12.057 1.04557 12.918 1.37271 13.5361 1.98353L14.9253 3.35688C15.4496 3.87536 15.7487 4.54957 15.8085 5.27176C15.0571 5.37273 14.6292 5.83617 14.2791 6.2184C13.9218 6.60863 13.6394 6.91663 13.0596 6.91663C12.4798 6.91663 12.1974 6.60863 11.8401 6.2184C11.445 5.78707 10.9531 5.24996 10.0062 5.24996C9.05935 5.24996 8.56744 5.78707 8.17193 6.2184C7.81467 6.60863 7.53229 6.91663 6.95205 6.91663C6.94432 6.91663 6.93909 6.91382 6.93147 6.91374L9.28314 4.58864ZM11.1549 9.54088C10.9934 9.3769 10.7297 9.37526 10.5657 9.53764L7.4517 12.6164C7.26983 12.7966 6.97319 12.7958 6.79213 12.6164C6.70545 12.5309 6.65784 12.4174 6.65784 12.2974C6.65784 12.1797 6.70299 12.069 6.78561 11.984L9.90611 8.89874C10.0697 8.73721 10.0713 8.47311 9.90935 8.30956C9.74782 8.14557 9.48415 8.14393 9.32017 8.30632L6.20616 11.3851C6.20249 11.3887 6.19881 11.3924 6.19518 11.396L5.58362 12.0007C5.40175 12.1801 5.10511 12.1801 4.92405 12.0007C4.83737 11.9148 4.78937 11.8013 4.78976 11.6808C4.78976 11.5608 4.83737 11.4477 4.92405 11.3618L8.03763 8.28307C8.20123 8.12155 8.20283 7.85741 8.04088 7.69382C7.97115 7.623 7.88154 7.58855 7.78998 7.57843C8.22803 7.3853 8.52892 7.06234 8.7863 6.78156C9.14357 6.39132 9.42595 6.08332 10.0062 6.08332C10.586 6.08332 10.8684 6.39132 11.2257 6.78156C11.6208 7.21288 12.1127 7.74999 13.0596 7.74999C14.0064 7.74999 14.4984 7.21288 14.8935 6.78156C15.1717 6.47769 15.4091 6.22883 15.7723 6.13133C15.6534 6.71804 15.363 7.25761 14.9252 7.69058L9.9431 12.6163C9.76161 12.7962 9.46458 12.7962 9.2831 12.6163C9.19642 12.5309 9.1488 12.4174 9.1488 12.2973C9.1488 12.1768 9.19642 12.0633 9.2831 11.9774L11.1516 10.13C11.3152 9.9685 11.3168 9.70443 11.1549 9.54088ZM6.21788 7.61929C6.42956 7.69819 6.6685 7.74999 6.95201 7.74999C7.13807 7.74999 7.30217 7.72452 7.4558 7.68788C7.45459 7.68905 7.45291 7.68937 7.4517 7.69058L4.96066 10.1532C4.77796 10.3335 4.48214 10.3327 4.30109 10.1532C4.21441 10.0678 4.16679 9.95424 4.16679 9.8342C4.16679 9.71377 4.21441 9.60022 4.30109 9.51436L6.21788 7.61929ZM16.8759 16.1526C16.7981 16.565 16.4548 16.9166 16.0588 16.9166H3.94136C3.54547 16.9166 3.20203 16.565 3.1243 16.1526L1.51981 7.62909C2.03516 7.45226 2.37375 7.10476 2.66981 6.78199C3.02789 6.39175 3.31066 6.08336 3.89253 6.08336C4.47441 6.08336 4.75718 6.39179 5.11569 6.78199C5.22972 6.90624 5.3539 7.03827 5.49253 7.16468L3.71515 8.92194C3.46898 9.1653 3.33347 9.48963 3.33347 9.83424C3.33386 10.1789 3.46937 10.5028 3.71515 10.7458C3.83968 10.869 3.98371 10.9618 4.1371 11.0245C4.0191 11.2206 3.95644 11.4461 3.95644 11.6808C3.95605 12.0255 4.09195 12.3498 4.33812 12.5931C4.76616 13.0175 5.42249 13.0814 5.92096 12.7856C5.98565 12.9422 6.08171 13.0859 6.2062 13.2088C6.45889 13.4586 6.79049 13.5832 7.12213 13.5832C7.45377 13.5832 7.78537 13.4586 8.03767 13.2088L8.42791 12.823C8.4922 12.965 8.58295 13.0956 8.69728 13.2088C9.20267 13.7085 10.0238 13.7077 10.5291 13.2088L15.5112 8.28304C16.0952 7.70538 16.4649 6.97659 16.6013 6.18726C16.883 6.3075 17.0945 6.52152 17.3325 6.78156C17.6283 7.10406 17.9661 7.45179 18.4806 7.62878L16.8759 16.1526Z" fill="#787A80"/>
</svg>
