<svg width="16" height="12" viewBox="0 0 16 12" fill="none" xmlns="http://www.w3.org/2000/svg">
<path fill-rule="evenodd" clip-rule="evenodd" d="M14.2602 0.74304C14.9455 0.92761 15.4859 1.46789 15.6703 2.15331C16.0131 3.40526 15.9999 6.01486 15.9999 6.01486C15.9999 6.01486 15.9999 8.61117 15.6705 9.86323C15.4859 10.5485 14.9456 11.0889 14.2602 11.2734C13.0081 11.603 7.99997 11.603 7.99997 11.603C7.99997 11.603 3.00487 11.603 1.73974 11.2603C1.05432 11.0758 0.514036 10.5354 0.329466 9.85005C0 8.61117 0 6.00168 0 6.00168C0 6.00168 0 3.40526 0.329466 2.15331C0.513914 1.46801 1.0675 0.914426 1.73962 0.729979C2.99169 0.400391 7.99984 0.400391 7.99984 0.400391C7.99984 0.400391 13.0081 0.400391 14.2602 0.74304ZM10.5699 6.0017L6.40525 8.40039V3.60302L10.5699 6.0017Z" fill="white"/>
</svg>
